Coordinates
version=1
nRows=4
nColumns=63
inDegrees=yes

Units are S.I. units (second, meters, Newtons, ...)
If the header above contains a line with 'inDegrees', this indicates whether rotational values are in degrees (yes) or radians (no).

endheader
time	pelvis_tilt	pelvis_list	pelvis_rotation	pelvis_tx	pelvis_ty	pelvis_tz	hip_flexion_r	hip_adduction_r	hip_rotation_r	knee_angle_r	knee_angle_r_beta	ankle_angle_r	subtalar_angle_r	mtp_angle_r	hip_flexion_l	hip_adduction_l	hip_rotation_l	knee_angle_l	knee_angle_l_beta	ankle_angle_l	subtalar_angle_l	mtp_angle_l	L5_S1_Flex_Ext	L5_S1_Lat_Bending	L5_S1_axial_rotation	L4_L5_Flex_Ext	L4_L5_Lat_Bending	L4_L5_axial_rotation	L3_L4_Flex_Ext	L3_L4_Lat_Bending	L3_L4_axial_rotation	L2_L3_Flex_Ext	L2_L3_Lat_Bending	L2_L3_axial_rotation	L1_L2_Flex_Ext	L1_L2_Lat_Bending	L1_L2_axial_rotation	L1_T12_Flex_Ext	L1_T12_Lat_Bending	L1_T12_axial_rotation	Abs_r3	Abs_r2	Abs_r1	Abs_t1	Abs_t2	neck_flexion	neck_bending	neck_rotation	arm_flex_r	arm_add_r	arm_rot_r	elbow_flex_r	pro_sup_r	wrist_flex_r	wrist_dev_r	arm_flex_l	arm_add_l	arm_rot_l	elbow_flex_l	pro_sup_l	wrist_flex_l	wrist_dev_l
      4.90000000	     -8.38008497	     -0.24531334	    105.45082576	      0.25595088	      1.00026039	      0.25876965	     -2.52160716	     -8.61704820	    -23.92808350	     13.18643853	      0.23014677	     29.05397346	      9.15958623	      0.00000000	      2.26151805	      7.60175151	     -5.74444829	     15.84184435	      0.27649234	     23.83613871	      7.15752103	      0.00000000	     -0.22945992	     -0.30387880	      2.32961286	     -0.42613002	     -0.40415880	      2.47521366	     -0.37697970	     -0.73885090	      2.47521366	     -0.26224974	     -0.73885090	      2.03841125	     -0.21307648	     -0.61966964	      1.89281045	     -0.13111340	     -0.47070825	      1.74720964	     -1.63900927	     -3.43753771	     12.95660782	      0.00000000	      0.00000000	     -8.96188678	     -5.51300039	     37.28215688	     20.05082309	     -2.41169196	     27.56449990	     88.20409844	     88.77325537	     -5.40388249	      7.01444633	    -11.61307604	     -7.55011150	    -23.62319340	    114.10133820	     77.26764888	      2.55387790	      9.31760201
      4.91666667	     -8.37614968	     -0.19056617	    105.56082627	      0.25621674	      1.00076751	      0.25791641	     -2.82269031	     -8.56339869	    -24.78358350	     12.89911301	      0.22513199	     29.08157886	     10.24165365	      0.00000000	      2.12556230	      7.55513257	     -5.54879257	     15.80442521	      0.27583926	     23.77243077	      7.08797346	      0.00000000	     -0.22631364	     -0.30491288	      2.29861270	     -0.42028707	     -0.40553413	      2.44227600	     -0.37181068	     -0.74136518	      2.44227600	     -0.25865386	     -0.74136518	      2.01128612	     -0.21015485	     -0.62177834	      1.86762282	     -0.12931562	     -0.47231005	      1.72395953	     -1.61653572	     -3.44923548	     12.78419428	      0.00000000	      0.00000000	     -9.36977079	     -4.58833878	     38.13675666	     20.11978222	     -2.72314467	     27.86396282	     87.98221894	     88.65393529	     -6.21162980	      6.72844851	    -11.62156062	     -6.55503506	    -25.01167419	    114.06590151	     79.61690579	      2.44532791	     10.84743490
      4.93333333	     -8.45000036	     -0.15896257	    105.59584584	      0.25676618	      1.00117586	      0.25720969	     -2.97978622	     -8.56917953	    -25.00243379	     12.78406059	      0.22312395	     29.06802995	     10.51516707	      0.00000000	      1.99106964	      7.58059543	     -5.44583088	     15.72497017	      0.27445250	     23.70855062	      7.10546047	      0.00000000	     -0.22781719	     -0.31642358	      2.32888440	     -0.42307931	     -0.42084336	      2.47443967	     -0.37428087	     -0.76935229	      2.47443967	     -0.26037227	     -0.76935229	      2.03777385	     -0.21155104	     -0.64525096	      1.89221857	     -0.13017474	     -0.49014013	      1.74666330	     -1.62727542	     -3.57944682	     12.95255636	      0.00000000	      0.00000000	     -9.77294794	     -3.72892926	     38.73589724	     20.05777384	     -3.13409195	     27.92896549	     87.92190576	     88.50396522	     -6.75710267	      6.81502201	    -11.53110057	     -5.88498741	    -26.03966117	    114.00061069	     82.10873350	      1.64713796	     12.87787751
      4.95000000	     -8.50036849	     -0.15767093	    105.67590632	      0.25739994	      1.00152070	      0.25658938	     -3.03628131	     -8.55711372	    -25.06525975	     12.78493407	      0.22313919	     29.06006522	     10.49419687	      0.00000000	      1.94461505	      7.57258418	     -5.37326748	     15.73952169	      0.27470648	     23.64799716	      7.17029871	      0.00000000	     -0.22566099	     -0.32482039	      2.36521073	     -0.41907503	     -0.43201112	      2.51303640	     -0.37073845	     -0.78976830	      2.51303640	     -0.25790795	     -0.78976830	      2.06955939	     -0.20954880	     -0.66237375	      1.92173372	     -0.12894269	     -0.50314679	      1.77390805	     -1.61187392	     -3.67443325	     13.15459253	      0.00000000	      0.00000000	     -9.82848279	     -3.51071095	     38.87700299	     19.81901962	     -3.55056962	     27.84030864	     87.87069845	     88.42560713	     -6.80099510	      6.88379918	    -11.66176357	     -5.89251238	    -26.60863990	    113.37764047	     82.35848183	      1.40486786	     13.14588908
